Coordinates
version=1
nRows=24
nColumns=22
inDegrees=yes

Units are S.I. units (second, meters, Newtons, ...)
If the header above contains a line with 'inDegrees', this indicates whether rotational values are in degrees (yes) or radians (no).

endheader
time	pelvis_tilt	pelvis_list	pelvis_rotation	pelvis_tx	pelvis_ty	pelvis_tz	hip_flexion_r	hip_adduction_r	hip_rotation_r	knee_angle_r	ankle_angle_r	subtalar_angle_r	hip_flexion_l	hip_adduction_l	hip_rotation_l	knee_angle_l	ankle_angle_l	subtalar_angle_l	lumbar_extension	lumbar_bending	lumbar_rotation
      1.41000000	      2.19635236	     -2.49828391	     -2.00072793	      1.04666153	      0.92877550	      0.13904010	     -1.06623323	      2.63839694	      1.96348665	     -9.49726105	      3.44114842	      3.43305377	     -0.42056934	     -4.18775662	    -12.62870401	    -12.48858395	      7.17804303	     -1.74279658	     -5.23536496	     -1.31790697	      2.48821567
      1.42000000	      2.18470404	     -2.53633342	     -2.04881678	      1.04613098	      0.92874664	      0.13917611	     -0.96371162	      2.68586259	      1.97383342	     -9.59602154	      3.42819256	      3.44232259	     -0.34107639	     -4.25740025	    -12.66353110	    -12.57004662	      7.14942356	     -1.64353157	     -5.24353813	     -1.27276915	      2.51037044
      1.43000000	      2.15869966	     -2.55630367	     -2.10235225	      1.04553182	      0.92869218	      0.13932630	     -0.82772743	      2.71582752	      2.01056257	     -9.71956356	      3.42363895	      3.43633842	     -0.23071160	     -4.31093007	    -12.66956436	    -12.67347411	      7.14066257	     -1.51281263	     -5.24364801	     -1.24534392	      2.52449414
      1.44000000	      2.13686681	     -2.57055512	     -2.15972431	      1.04489769	      0.92864452	      0.13950281	     -0.68046785	      2.74240384	      2.04864279	     -9.86731971	      3.42601380	      3.40999573	     -0.11641313	     -4.36237320	    -12.67304859	    -12.78819466	      7.12376485	     -1.38292185	     -5.25338061	     -1.22260312	      2.53168137
      1.45000000	      2.15268886	     -2.58873453	     -2.22307710	      1.04424563	      0.92865627	      0.13972814	     -0.55772444	      2.77614164	      2.07043040	    -10.04172244	      3.42867597	      3.38380679	     -0.04346160	     -4.41875948	    -12.66650694	    -12.90048159	      7.08393054	     -1.30778024	     -5.31183793	     -1.20026513	      2.56119970
      1.46000000	      2.11578585	     -2.59427432	     -2.29935597	      1.04351589	      0.92857908	      0.14002247	     -0.34481725	      2.80604038	      2.13400393	    -10.26880091	      3.45844277	      3.31030800	      0.12212662	     -4.47632643	    -12.68157369	    -13.07673532	      7.07843322	     -1.13909730	     -5.31699634	     -1.19362722	      2.58639368
      1.47000000	      2.11637487	     -2.60352735	     -2.37394475	      1.04277095	      0.92855678	      0.14034894	     -0.15084636	      2.84224461	      2.16167188	    -10.53299475	      3.48842765	      3.23605593	      0.25097781	     -4.53805310	    -12.68532162	    -13.25624561	      7.04731312	     -1.02105539	     -5.37057036	     -1.18222084	      2.62586801
      1.48000000	      2.12479361	     -2.60974429	     -2.45566911	      1.04198405	      0.92853786	      0.14073457	      0.05995131	      2.88144036	      2.19209901	    -10.83855870	      3.52898405	      3.15056689	      0.38410182	     -4.60044917	    -12.69242944	    -13.45642029	      7.01875821	     -0.91440329	     -5.43914926	     -1.17597958	      2.67324549
      1.49000000	      2.14032442	     -2.61182988	     -2.54054230	      1.04113929	      0.92851527	      0.14118227	      0.28820090	      2.92284519	      2.22031156	    -11.18266087	      3.57956214	      3.05203036	      0.52653200	     -4.66300088	    -12.70063827	    -13.68306774	      6.99610823	     -0.81728073	     -5.52540431	     -1.17560251	      2.72388694
      1.50000000	      2.21442681	     -2.62594879	     -2.62178488	      1.04027487	      0.92857338	      0.14169629	      0.46381154	      2.98045378	      2.21942544	    -11.54234235	      3.59610889	      2.99752209	      0.59746416	     -4.73510537	    -12.68198885	    -13.88783894	      6.94813639	     -0.77727058	     -5.68425336	     -1.16905360	      2.79200690
      1.51000000	      2.18754650	     -2.60880420	     -2.72165676	      1.03925255	      0.92843331	      0.14229992	      0.79149281	      3.02048908	      2.28450600	    -11.96452683	      3.70433464	      2.81964063	      0.84128274	     -4.79510220	    -12.71511891	    -14.20367166	      6.97903876	     -0.66271364	     -5.74512308	     -1.19261554	      2.84202294
      1.52000000	      2.28412651	     -2.62010177	     -2.80266821	      1.03826383	      0.92848410	      0.14296238	      0.97522327	      3.08934900	      2.27405357	    -12.36802476	      3.71147589	      2.75915662	      0.91451399	     -4.87159883	    -12.68928924	    -14.44381716	      6.94141346	     -0.63905747	     -5.95100341	     -1.19381271	      2.91526248
      1.53000000	      2.27690219	     -2.60151544	     -2.90220076	      1.03713492	      0.92832159	      0.14372569	      1.30476309	      3.14323725	      2.33771595	    -12.82094934	      3.82773453	      2.56024708	      1.16034072	     -4.93932845	    -12.72261924	    -14.79171542	      6.99773927	     -0.56999946	     -6.05148629	     -1.22452958	      2.97060509
      1.54000000	      2.32397811	     -2.59569372	     -2.98747474	      1.03600368	      0.92823242	      0.14454516	      1.57040780	      3.21225883	      2.35391014	    -13.26248996	      3.88034368	      2.40118850	      1.33114523	     -5.01514713	    -12.71391642	    -15.10099690	      7.01154214	     -0.53780198	     -6.21836848	     -1.24353627	      3.04467462
      1.55000000	      2.42919613	     -2.59371857	     -3.06841475	      1.03488568	      0.92822098	      0.14542172	      1.76082936	      3.28501678	      2.35024002	    -13.68252586	      3.90020128	      2.32181453	      1.41606925	     -5.08772826	    -12.68679455	    -15.36450375	      7.00289436	     -0.52551732	     -6.45262408	     -1.25884707	      3.13108042
      1.56000000	      2.42287359	     -2.56986251	     -3.14960856	      1.03364514	      0.92800057	      0.14638517	      2.08443662	      3.35276701	      2.40600856	    -14.11601892	      3.98913927	      2.05637229	      1.66782389	     -5.15820068	    -12.67601789	    -15.70261608	      7.05122917	     -0.49597442	     -6.56976635	     -1.29483091	      3.21681324
      1.57000000	      2.53899860	     -2.55162545	     -3.20385084	      1.03245600	      0.92796542	      0.14735919	      2.24076909	      3.41495066	      2.39272316	    -14.48974345	      4.00871501	      1.98378115	      1.75457690	     -5.22163796	    -12.64708849	    -15.97324242	      7.05345787	     -0.48631866	     -6.82610753	     -1.32630270	      3.29928813
      1.58000000	      2.54269505	     -2.51515974	     -3.24916838	      1.03116746	      0.92772681	      0.14840012	      2.51640594	      3.47417106	      2.42795618	    -14.85412247	      4.10784491	      1.70747703	      2.00557730	     -5.28541847	    -12.62078877	    -16.31145082	      7.11418423	     -0.46487592	     -6.95878701	     -1.37240550	      3.38806906
      1.59000000	      2.64253824	     -2.49083722	     -3.27334498	      1.02992979	      0.92765643	      0.14946689	      2.65413970	      3.53604639	      2.39514127	    -15.16082085	      4.11320399	      1.62613534	      2.11129732	     -5.34840520	    -12.56569780	    -16.56535856	      7.09651096	     -0.45882241	     -7.19666855	     -1.40752869	      3.48422897
      1.60000000	      2.64457991	     -2.44831395	     -3.26358342	      1.02862049	      0.92741350	      0.15056455	      2.87763688	      3.58985491	      2.37086159	    -15.42692177	      4.19736217	      1.36422973	      2.36989566	     -5.40945458	    -12.48857308	    -16.89116039	      7.14144592	     -0.44572733	     -7.32392837	     -1.45818119	      3.57312931
      1.61000000	      2.67455934	     -2.40918905	     -3.22792983	      1.02730798	      0.92722734	      0.15168139	      3.05051767	      3.64465011	      2.32448453	    -15.65820370	      4.23034365	      1.17808739	      2.58007608	     -5.46969539	    -12.39445681	    -17.16693522	      7.13671147	     -0.44071064	     -7.48348401	     -1.50070308	      3.65374903
      1.62000000	      2.69211370	     -2.37167533	     -3.17547053	      1.02598397	      0.92702808	      0.15287059	      3.21801916	      3.70522241	      2.26343172	    -15.85642043	      4.26645339	      1.00318152	      2.80498252	     -5.53696782	    -12.27893391	    -17.43845458	      7.12894634	     -0.43614373	     -7.62205329	     -1.54794975	      3.73239792
      1.63000000	      2.74483304	     -2.33882595	     -3.11257943	      1.02465702	      0.92689299	      0.15411419	      3.32883302	      3.76966405	      2.19156362	    -16.02236902	      4.28900966	      0.91709757	      2.98175171	     -5.61061278	    -12.18661355	    -17.68389565	      7.08327379	     -0.43220990	     -7.79933366	     -1.59394614	      3.83134963
      1.64000000	      2.67793497	     -2.30435825	     -2.99315402	      1.02325965	      0.92657208	      0.15535404	      3.55496529	      3.83979842	      2.07172913	    -16.15362641	      4.32625708	      0.67784478	      3.33565399	     -5.69354813	    -11.99948480	    -17.99214238	      7.08918934	     -0.42071417	     -7.83783744	     -1.63342876	      3.90268285
